<?xml version="1.0" ?><!DOCTYPE svg  PUBLIC '-//W3C//DTD SVG 1.1//EN'  'http://www.w3.org/Graphics/SVG/1.1/DTD/svg11.dtd'><svg enable-background="new 0 0 128 128" id="Слой_1" version="1.1" viewBox="0 0 128 128" xml:space="preserve" xmlns="http://www.w3.org/2000/svg" xmlns:xlink="http://www.w3.org/1999/xlink"><g><g><g><g><path d="M63.7,25c-0.8,0-1.5-0.3-2.1-0.9c-1.2-1.2-1.2-3.1,0-4.2l3.9-3.9c1.2-1.2,3.1-1.2,4.2,0      c1.2,1.2,1.2,3.1,0,4.2l-3.9,3.9C65.3,24.7,64.5,25,63.7,25z" fill="#AF9BAC"/></g></g></g></g><g><g><g><g><path d="M14.3,25c-0.8,0-1.5-0.3-2.1-0.9l-3.9-3.9C7,19,7,17.1,8.2,16c1.2-1.2,3.1-1.2,4.2,0l3.9,3.9      c1.2,1.2,1.2,3.1,0,4.2C15.8,24.7,15,25,14.3,25z" fill="#AF9BAC"/></g></g></g></g><g><g><g><g><path d="M39,14.8c-1.7,0-3-1.3-3-3V4c0-1.7,1.3-3,3-3s3,1.3,3,3v7.8C42,13.4,40.7,14.8,39,14.8z" fill="#AF9BAC"/></g></g></g></g><g><g><g><g><circle cx="39" cy="46.8" fill="#F7F6F9" r="35"/></g></g></g></g><g><g><g><g><circle cx="39" cy="46.8" fill="#C3E8F3" r="27.2"/></g></g></g></g><g><g><g><g><path d="M39,75.5c-15.8,0-28.7-12.9-28.7-28.7c0-12.4,7.9-23.3,19.6-27.2c0.8-0.3,1.6,0.2,1.9,0.9      c0.3,0.8-0.2,1.6-0.9,1.9c-10.5,3.5-17.5,13.3-17.5,24.4C13.3,61,24.8,72.5,39,72.5c4.6,0,9.1-1.2,13.1-3.6      c0.7-0.4,1.6-0.2,2.1,0.5c0.4,0.7,0.2,1.6-0.5,2.1C49.2,74.1,44.1,75.5,39,75.5z" fill="#AF9BAC"/></g></g></g></g><g><g><g><g><path d="M39,19.6c15,0,27.2,12.2,27.2,27.2c0,7.5-3,14.3-8,19.2L39,46.8V19.6z" fill="#FFFFFF"/></g></g></g></g><g opacity="0.15"><g><g><g><path d="M22.1,47.4v30c5,2.8,10.7,4.3,16.9,4.3c19.3,0,35-15.7,35-35c0-5.5-1.3-10.7-3.5-15.3H38.1      C29.3,31.4,22.1,38.6,22.1,47.4z" fill="#62345B"/></g></g></g></g><g><g><g><g><circle cx="39" cy="46.8" fill="#EAE6EC" r="3.9"/></g></g></g></g><g><g><g><g><path d="M39,83.3c-20.1,0-36.5-16.4-36.5-36.5S18.9,10.3,39,10.3s36.5,16.4,36.5,36.5S59.1,83.3,39,83.3z       M39,13.3c-18.5,0-33.5,15-33.5,33.5c0,18.5,15,33.5,33.5,33.5c18.5,0,33.5-15,33.5-33.5C72.5,28.3,57.5,13.3,39,13.3z" fill="#AF9BAC"/></g></g></g></g><g><g><g><g><path d="M58.2,67.5c-0.4,0-0.8-0.1-1.1-0.4c-0.6-0.6-0.6-1.5,0-2.1c4.9-4.9,7.5-11.3,7.5-18.2      c0-14.2-11.5-25.7-25.7-25.7c-0.8,0-1.5-0.7-1.5-1.5s0.7-1.5,1.5-1.5c15.8,0,28.7,12.9,28.7,28.7c0,7.7-3,14.9-8.4,20.3      C59,67.4,58.6,67.5,58.2,67.5z" fill="#AF9BAC"/></g></g></g></g><g><g><g><g><path d="M39,44.4c-0.8,0-1.5-0.7-1.5-1.5V27.3c0-0.8,0.7-1.5,1.5-1.5s1.5,0.7,1.5,1.5v15.6      C40.5,43.7,39.8,44.4,39,44.4z" fill="#AF9BAC"/></g></g></g></g><g><g><g><g><path d="M39,52.2c-3,0-5.4-2.4-5.4-5.4c0-3,2.4-5.4,5.4-5.4c3,0,5.4,2.4,5.4,5.4C44.4,49.7,42,52.2,39,52.2z       M39,44.4c-1.3,0-2.4,1.1-2.4,2.4c0,1.3,1.1,2.4,2.4,2.4c1.3,0,2.4-1.1,2.4-2.4C41.4,45.5,40.3,44.4,39,44.4z" fill="#AF9BAC"/></g></g></g></g><g><g><g><g><path d="M58.2,67.5c-0.4,0-0.8-0.1-1.1-0.4l-5.5-5.5c-0.6-0.6-0.6-1.5,0-2.1c0.6-0.6,1.5-0.6,2.1,0l5.5,5.5      c0.6,0.6,0.6,1.5,0,2.1C59,67.4,58.6,67.5,58.2,67.5z" fill="#AF9BAC"/></g></g></g></g><g><g><g><g><path d="M43.7,7h-9.3c-1.7,0-3-1.3-3-3s1.3-3,3-3h9.3c1.7,0,3,1.3,3,3S45.3,7,43.7,7z" fill="#AF9BAC"/></g></g></g></g><g><g><g><g><g><g><path d="M71.5,121.4L46.6,96.5c-3.4-3.4-3.4-9,0-12.5L84,46.6c3.4-3.4,9-3.4,12.5,0l24.9,24.9        c3.4,3.4,3.4,9,0,12.5L84,121.4C80.6,124.9,75,124.9,71.5,121.4z" fill="#F9F071"/></g></g></g><g><g><g><path d="M71.5,121.4L46.6,96.5c-3.4-3.4-3.4-9,0-12.5L84,46.6c3.4-3.4,9-3.4,12.5,0l24.9,24.9        c3.4,3.4,3.4,9,0,12.5L84,121.4C80.6,124.9,75,124.9,71.5,121.4z" fill="#F9F071"/></g></g></g><g opacity="0.15"><g><g><path d="M94.1,107.4v-60c0-0.9-0.1-1.8-0.2-2.6c-3.3-1.5-7.2-0.9-9.9,1.8L46.6,84c-3.4,3.4-3.4,9,0,12.5        l24.9,24.9c0.9,0.9,2,1.6,3.1,2h3.5c1.3,0,2.6-0.2,3.8-0.5c0.8-0.4,1.5-0.9,2.1-1.5l9.5-9.5C93.9,110.5,94.1,109,94.1,107.4z" fill="#62345B"/></g></g></g><g><g><g><g><path d="M85.2,52.8c3.4-3.4,9-3.4,12.5,0l24.9,24.9c0.5,0.5,0.9,1,1.2,1.5c0.5-2.7-0.3-5.6-2.4-7.7L96.5,46.6         c-3.4-3.4-9-3.4-12.5,0L46.6,84c-3,3-3.4,7.6-1.2,11c0.3-1.7,1.1-3.4,2.4-4.7L85.2,52.8z" fill="#FFFFFF"/></g></g></g></g><g><g><g><path d="M77.8,125.5c-2.8,0-5.3-1.1-7.3-3L45.5,97.5c-1.9-1.9-3-4.5-3-7.3s1.1-5.3,3-7.3l37.4-37.4        c1.9-1.9,4.5-3,7.3-3c2.8,0,5.3,1.1,7.3,3l24.9,24.9c1.9,1.9,3,4.5,3,7.3s-1.1,5.3-3,7.3l-37.4,37.4        C83.1,124.4,80.5,125.5,77.8,125.5z M90.2,45.5c-2,0-3.8,0.8-5.2,2.1L47.6,85.1c-1.4,1.4-2.1,3.2-2.1,5.2s0.8,3.8,2.1,5.2        l24.9,24.9c1.4,1.4,3.2,2.1,5.2,2.1s3.8-0.8,5.2-2.1l37.4-37.4c1.4-1.4,2.1-3.2,2.1-5.2s-0.8-3.8-2.1-5.2L95.4,47.6        C94,46.3,92.2,45.5,90.2,45.5z" fill="#62355C"/></g></g></g></g><g><g><g><g><path d="M78.1,117.4h-40c-5.5,0-10-4.5-10-10v-60c0-5.5,4.5-10,10-10h40c5.5,0,10,4.5,10,10v60        C88.1,113,83.7,117.4,78.1,117.4z" fill="#F37865"/></g></g></g><g><g><g><g><path d="M34.1,51.4c0-5.5,4.5-10,10-10h40c0.7,0,1.5,0.1,2.2,0.2c-1.8-2.6-4.8-4.2-8.2-4.2h-40         c-5.5,0-10,4.5-10,10v60c0,4.8,3.4,8.8,7.8,9.8c-1.2-1.6-1.8-3.6-1.8-5.8V51.4z" fill="#FFFFFF"/></g></g></g></g><g><g><g><path d="M78.1,118.9h-40c-6.3,0-11.5-5.2-11.5-11.5v-60c0-6.3,5.2-11.5,11.5-11.5h40c6.3,0,11.5,5.2,11.5,11.5        v60C89.6,113.8,84.5,118.9,78.1,118.9z M38.1,38.9c-4.7,0-8.5,3.8-8.5,8.5v60c0,4.7,3.8,8.5,8.5,8.5h40c4.7,0,8.5-3.8,8.5-8.5        v-60c0-4.7-3.8-8.5-8.5-8.5H38.1z" fill="#62355C"/></g></g></g></g></g></g></svg>